<?xml version="1.0" encoding="UTF-8"?>
<svg xmlns="http://www.w3.org/2000/svg" viewBox="0 0 800 600" width="800" height="600">
  <defs>
    <style>
      .region-box { fill: #e6f3ff; stroke: #1f77b4; stroke-width: 2; }
      .aurora-cluster { fill: #fff2cc; stroke: #d6b656; stroke-width: 2; }
      .instance { fill: #d5e8d4; stroke: #82b366; stroke-width: 1; }
      .connection { stroke: #ff6b6b; stroke-width: 2; marker-end: url(#arrowhead); }
      .text { font-family: Arial, sans-serif; font-size: 12px; }
      .title { font-family: Arial, sans-serif; font-size: 16px; font-weight: bold; }
    </style>
    <marker id="arrowhead" markerWidth="10" markerHeight="7" refX="10" refY="3.5" orient="auto">
      <polygon points="0 0, 10 3.5, 0 7" fill="#ff6b6b" />
    </marker>
  </defs>

  <!-- Title -->
  <text x="400" y="30" text-anchor="middle" class="title">Aurora PostgreSQL Logical Replication - Single Region (us-east-1)</text>

  
  <!-- Single Region Setup -->
  <rect x="50" y="60" width="700" height="500" class="region-box" rx="10"/>
  <text x="400" y="85" text-anchor="middle" class="title">AWS Region: us-east-1</text>
  
  <!-- VPC -->
  <rect x="100" y="110" width="600" height="400" fill="#f0f8ff" stroke="#4682b4" stroke-width="2" rx="5"/>
  <text x="400" y="135" text-anchor="middle" class="text">VPC (10.0.0.0/16)</text>
  
  <!-- Primary Aurora Cluster -->
  <rect x="150" y="170" width="250" height="150" class="aurora-cluster" rx="5"/>
  <text x="275" y="195" text-anchor="middle" class="text">Primary Aurora Cluster</text>
  <rect x="170" y="210" width="80" height="40" class="instance" rx="3"/>
  <text x="210" y="235" text-anchor="middle" class="text">Writer</text>
  <rect x="270" y="210" width="80" height="40" class="instance" rx="3"/>
  <text x="310" y="235" text-anchor="middle" class="text">Reader</text>
  <text x="275" y="285" text-anchor="middle" class="text">Publication: my_publication</text>
  
  <!-- Replica Aurora Cluster -->
  <rect x="450" y="170" width="250" height="150" class="aurora-cluster" rx="5"/>
  <text x="575" y="195" text-anchor="middle" class="text">Replica Aurora Cluster</text>
  <rect x="470" y="210" width="80" height="40" class="instance" rx="3"/>
  <text x="510" y="235" text-anchor="middle" class="text">Writer</text>
  <rect x="570" y="210" width="80" height="40" class="instance" rx="3"/>
  <text x="610" y="235" text-anchor="middle" class="text">Reader</text>
  <text x="575" y="285" text-anchor="middle" class="text">Subscription: my_subscription</text>
  
  <!-- Logical Replication Arrow -->
  <line x1="400" y1="245" x2="450" y2="245" class="connection"/>
  <text x="425" y="240" text-anchor="middle" class="text">Logical Replication</text>
  
  
  <!-- Legend -->
  <rect x="50" y="530" width="700" height="50" fill="#f9f9f9" stroke="#ccc" stroke-width="1" rx="3"/>
  <text x="70" y="550" class="text">Legend:</text>
  <rect x="120" y="540" width="15" height="10" class="aurora-cluster"/>
  <text x="145" y="550" class="text">Aurora Cluster</text>
  <rect x="250" y="540" width="15" height="10" class="instance"/>
  <text x="275" y="550" class="text">Aurora Instance</text>
  <line x1="380" y1="545" x2="420" y2="545" class="connection"/>
  <text x="430" y="550" class="text">Logical Replication</text>
</svg>