<?xml version="1.0" encoding="UTF-8"?>
<svg xmlns="http://www.w3.org/2000/svg" viewBox="0 0 800 600" width="800" height="600">
  <defs>
    <style>
      .vpc-box { fill: #e8f5e8; stroke: #4caf50; stroke-width: 2; }
      .subnet-box { fill: #fff3e0; stroke: #ff9800; stroke-width: 1; }
      .aurora-box { fill: #e3f2fd; stroke: #2196f3; stroke-width: 2; }
      .security-group { fill: #fce4ec; stroke: #e91e63; stroke-width: 1; stroke-dasharray: 5,5; }
      .text { font-family: Arial, sans-serif; font-size: 11px; }
      .title { font-family: Arial, sans-serif; font-size: 16px; font-weight: bold; }
      .subnet-title { font-family: Arial, sans-serif; font-size: 12px; font-weight: bold; }
    </style>
  </defs>

  <!-- Title -->
  <text x="400" y="30" text-anchor="middle" class="title">Single Region Network Architecture - us-east-1</text>

  <!-- VPC -->
  <rect x="50" y="60" width="700" height="500" class="vpc-box" rx="10"/>
  <text x="400" y="85" text-anchor="middle" class="title">VPC (10.0.0.0/16)</text>

  <!-- Private Subnet 1 -->
  <rect x="100" y="120" width="280" height="200" class="subnet-box" rx="5"/>
  <text x="240" y="145" text-anchor="middle" class="subnet-title">Private Subnet 1 (10.0.1.0/24)</text>
  <text x="240" y="160" text-anchor="middle" class="text">Availability Zone A</text>

  <!-- Primary Aurora Cluster in Subnet 1 -->
  <rect x="130" y="180" width="220" height="120" class="aurora-box" rx="5"/>
  <text x="240" y="205" text-anchor="middle" class="subnet-title">Primary Aurora Cluster</text>
  <rect x="150" y="220" width="80" height="30" fill="#c8e6c9" stroke="#4caf50" rx="3"/>
  <text x="190" y="240" text-anchor="middle" class="text">Writer Instance</text>
  <rect x="250" y="220" width="80" height="30" fill="#c8e6c9" stroke="#4caf50" rx="3"/>
  <text x="290" y="240" text-anchor="middle" class="text">Reader Instance</text>
  <text x="240" y="275" text-anchor="middle" class="text">Port: 5432</text>

  <!-- Private Subnet 2 -->
  <rect x="420" y="120" width="280" height="200" class="subnet-box" rx="5"/>
  <text x="560" y="145" text-anchor="middle" class="subnet-title">Private Subnet 2 (10.0.2.0/24)</text>
  <text x="560" y="160" text-anchor="middle" class="text">Availability Zone B</text>

  <!-- Replica Aurora Cluster in Subnet 2 -->
  <rect x="450" y="180" width="220" height="120" class="aurora-box" rx="5"/>
  <text x="560" y="205" text-anchor="middle" class="subnet-title">Replica Aurora Cluster</text>
  <rect x="470" y="220" width="80" height="30" fill="#bbdefb" stroke="#2196f3" rx="3"/>
  <text x="510" y="240" text-anchor="middle" class="text">Writer Instance</text>
  <rect x="570" y="220" width="80" height="30" fill="#bbdefb" stroke="#2196f3" rx="3"/>
  <text x="610" y="240" text-anchor="middle" class="text">Reader Instance</text>
  <text x="560" y="275" text-anchor="middle" class="text">Port: 5432</text>

  <!-- Security Groups -->
  <rect x="120" y="170" width="240" height="140" class="security-group" rx="5" fill="none"/>
  <text x="240" y="320" text-anchor="middle" class="text">Primary Security Group</text>

  <rect x="440" y="170" width="240" height="140" class="security-group" rx="5" fill="none"/>
  <text x="560" y="320" text-anchor="middle" class="text">Replica Security Group</text>

  <!-- Public Subnet for NAT/Bastion -->
  <rect x="250" y="360" width="300" height="80" class="subnet-box" rx="5"/>
  <text x="400" y="385" text-anchor="middle" class="subnet-title">Public Subnet (10.0.3.0/24)</text>
  <rect x="350" y="400" width="100" height="25" fill="#ffccbc" stroke="#ff5722" rx="3"/>
  <text x="400" y="417" text-anchor="middle" class="text">NAT Gateway</text>

  <!-- Internet Gateway -->
  <rect x="350" y="470" width="100" height="25" fill="#e8eaf6" stroke="#3f51b5" rx="3"/>
  <text x="400" y="487" text-anchor="middle" class="text">Internet Gateway</text>

  <!-- Connection Lines -->
  <line x1="350" y1="235" x2="420" y2="235" stroke="#4caf50" stroke-width="3"/>
  <text x="385" y="230" text-anchor="middle" class="text">Logical Replication</text>
  <text x="385" y="245" text-anchor="middle" class="text">Port 5432</text>

  <line x1="400" y1="440" x2="400" y2="470" stroke="#666" stroke-width="2"/>

  <!-- Route Tables Info -->
  <rect x="50" y="520" width="700" height="35" fill="#f5f5f5" stroke="#ccc" stroke-width="1" rx="3"/>
  <text x="70" y="540" class="text">Route Tables: Private subnets → NAT Gateway → Internet Gateway</text>
  <text x="70" y="555" class="text">Security Groups: Allow port 5432 between Aurora clusters, outbound HTTPS for patches</text>
</svg>