<?xml version="1.0" encoding="UTF-8"?>
<svg xmlns="http://www.w3.org/2000/svg" viewBox="0 0 900 500" width="900" height="500">
  <defs>
    <style>
      .step-box { fill: #e1f5fe; stroke: #0277bd; stroke-width: 2; }
      .data-flow { stroke: #4caf50; stroke-width: 3; marker-end: url(#greenArrow); }
      .control-flow { stroke: #ff9800; stroke-width: 2; marker-end: url(#orangeArrow); }
      .text { font-family: Arial, sans-serif; font-size: 12px; }
      .title { font-family: Arial, sans-serif; font-size: 16px; font-weight: bold; }
      .step-title { font-family: Arial, sans-serif; font-size: 14px; font-weight: bold; }
    </style>
    <marker id="greenArrow" markerWidth="10" markerHeight="7" refX="10" refY="3.5" orient="auto">
      <polygon points="0 0, 10 3.5, 0 7" fill="#4caf50" />
    </marker>
    <marker id="orangeArrow" markerWidth="10" markerHeight="7" refX="10" refY="3.5" orient="auto">
      <polygon points="0 0, 10 3.5, 0 7" fill="#ff9800" />
    </marker>
  </defs>

  <!-- Title -->
  <text x="450" y="30" text-anchor="middle" class="title">Aurora PostgreSQL Logical Replication Flow</text>

  <!-- Step 1: Publication Creation -->
  <rect x="50" y="80" width="150" height="80" class="step-box" rx="5"/>
  <text x="125" y="105" text-anchor="middle" class="step-title">1. Create Publication</text>
  <text x="125" y="125" text-anchor="middle" class="text">Primary Aurora Writer</text>
  <text x="125" y="140" text-anchor="middle" class="text">CREATE PUBLICATION</text>

  <!-- Step 2: Replication Slot -->
  <rect x="250" y="80" width="150" height="80" class="step-box" rx="5"/>
  <text x="325" y="105" text-anchor="middle" class="step-title">2. Replication Slot</text>
  <text x="325" y="125" text-anchor="middle" class="text">WAL Stream Created</text>
  <text x="325" y="140" text-anchor="middle" class="text">pg_replication_slots</text>

  <!-- Step 3: Subscription -->
  <rect x="450" y="80" width="150" height="80" class="step-box" rx="5"/>
  <text x="525" y="105" text-anchor="middle" class="step-title">3. Create Subscription</text>
  <text x="525" y="125" text-anchor="middle" class="text">Replica Aurora Writer</text>
  <text x="525" y="140" text-anchor="middle" class="text">CREATE SUBSCRIPTION</text>

  <!-- Step 4: Initial Sync -->
  <rect x="650" y="80" width="150" height="80" class="step-box" rx="5"/>
  <text x="725" y="105" text-anchor="middle" class="step-title">4. Initial Table Copy</text>
  <text x="725" y="125" text-anchor="middle" class="text">Bulk Data Transfer</text>
  <text x="725" y="140" text-anchor="middle" class="text">pg_dump/restore</text>

  <!-- Data Flow Arrows -->
  <line x1="200" y1="120" x2="250" y2="120" class="control-flow"/>
  <line x1="400" y1="120" x2="450" y2="120" class="control-flow"/>
  <line x1="600" y1="120" x2="650" y2="120" class="data-flow"/>

  <!-- Continuous Replication Section -->
  <text x="450" y="220" text-anchor="middle" class="title">Continuous Replication Process</text>

  <!-- Primary Aurora Operations -->
  <rect x="100" y="260" width="200" height="100" class="step-box" rx="5"/>
  <text x="200" y="285" text-anchor="middle" class="step-title">Primary Aurora Writer</text>
  <text x="200" y="305" text-anchor="middle" class="text">1. INSERT/UPDATE/DELETE</text>
  <text x="200" y="320" text-anchor="middle" class="text">2. WAL Records Generated</text>
  <text x="200" y="335" text-anchor="middle" class="text">3. Logical Decoding</text>

  <!-- Replica Aurora Operations -->
  <rect x="600" y="260" width="200" height="100" class="step-box" rx="5"/>
  <text x="700" y="285" text-anchor="middle" class="step-title">Replica Aurora Writer</text>
  <text x="700" y="305" text-anchor="middle" class="text">1. Receive WAL Stream</text>
  <text x="700" y="320" text-anchor="middle" class="text">2. Apply Changes</text>
  <text x="700" y="335" text-anchor="middle" class="text">3. Update Tables</text>

  <!-- Network Transfer -->
  <rect x="350" y="280" width="200" height="60" fill="#fff3e0" stroke="#ef6c00" stroke-width="2" rx="5"/>
  <text x="450" y="305" text-anchor="middle" class="step-title">Within-Region Transfer</text>
  <text x="450" y="325" text-anchor="middle" class="text">Low latency, no data charges</text>

  <!-- Continuous flow arrows -->
  <line x1="300" y1="310" x2="350" y2="310" class="data-flow"/>
  <line x1="550" y1="310" x2="600" y2="310" class="data-flow"/>

  <!-- Monitoring Section -->
  <rect x="200" y="400" width="500" height="60" fill="#f3e5f5" stroke="#7b1fa2" stroke-width="2" rx="5"/>
  <text x="450" y="425" text-anchor="middle" class="step-title">Monitoring & Validation</text>
  <text x="450" y="445" text-anchor="middle" class="text">pg_stat_subscription • pg_replication_slots • CloudWatch Metrics</text>

  <!-- Legend -->
  <rect x="50" y="480" width="800" height="15" fill="#f9f9f9" stroke="#ccc" stroke-width="1"/>
  <line x1="70" y1="487" x2="90" y2="487" class="data-flow"/>
  <text x="100" y="492" class="text">Data Flow</text>
  <line x1="200" y1="487" x2="220" y2="487" class="control-flow"/>
  <text x="230" y="492" class="text">Control Flow</text>
</svg>